<svg id="Layer_1" data-name="Layer 1" xmlns="http://www.w3.org/2000/svg" viewBox="0 0 1920 2744"><defs><style>.cls-1{fill:#ff423f;}.cls-2{opacity:0.64;}.cls-3,.cls-4,.cls-5,.cls-6{fill:#fff;}.cls-3{opacity:0.04;}.cls-4{opacity:0.08;}.cls-5{opacity:0.07;}.cls-6{opacity:0.11;}</style></defs><rect class="cls-1" width="1923" height="2744"/><g class="cls-2"><polygon class="cls-3" points="1271.98 0 794.06 1633.93 615.33 2244.99 469.36 2744 70.52 2744 95.65 2514.7 358.58 115.54 371.24 0 1271.98 0"/><polygon class="cls-4" points="1923 0 1923 198.59 1502.06 1637.71 1178.47 2744 795.71 2744 794.06 1633.93 791.63 0 1923 0"/><polygon class="cls-5" points="1923 0 1923 1999.62 1705.26 2744 1416.5 2744 1502.06 1637.71 1628.73 0 1923 0"/><polygon class="cls-6" points="675.49 2744 168.51 2744 95.65 2514.7 0 2213.69 0 681.61 74.96 0 344.65 0 358.58 115.54 615.33 2244.99 675.49 2744"/></g></svg>