<svg id="Layer_1" data-name="Layer 1" xmlns="http://www.w3.org/2000/svg" viewBox="0 0 576 576"><defs><style>.cls-1{fill:#fff;}</style></defs><path class="cls-1" d="M524.9,124.19A288.3,288.3,0,0,0,181.17,20.47C75,62.89,0,166.69,0,288,0,447.06,128.94,576,288,576c112.64,0,210.18-64.66,257.49-158.88A285.56,285.56,0,0,0,573.9,323a290.92,290.92,0,0,0,2.1-35A286.66,286.66,0,0,0,524.9,124.19ZM143.81,417.48c7.69,35.32,15.38,51.69,29.42,78.3a14.09,14.09,0,0,1-5.62,18.67,15,15,0,0,1-10.92,1,12.86,12.86,0,0,1-8-6.71c-16-29.78-23.88-48.22-31.9-85.35-8.39-37.82-6-80.1,6.82-122.44,23.56-78.07,109.53-121.55,191.57-96.79s129.59,108.51,106,186.6a13.73,13.73,0,1,1-26.28-7.94c19.19-63.62-20.13-132-87.69-152.38s-138.14,14.83-157.34,78.45C138.47,346.76,136.34,384.26,143.81,417.48ZM408,518.14a13.71,13.71,0,0,1-15.38,12,185.76,185.76,0,0,1-32.76-6.46c-31.29-9.43-56.51-25.64-74.45-48-31.15-38.38-41.54-88.55-27.73-134.29A13.73,13.73,0,1,1,284,349.36c-11.19,37.06-2.81,77.74,22.76,109,14.86,18.25,34.85,30.88,61.15,38.8A181.42,181.42,0,0,0,396,502.77,13.68,13.68,0,0,1,408,518.14Zm80.31-107.42c-12.85,42.6-59.61,66.35-104.29,52.87s-70.5-59.15-57.66-101.73c8.5-28.12-9.06-58.38-39.28-67.5s-61.6,6.36-70.08,34.49c-13.56,45-8.91,92.26,13.38,133.4,17.53,32.26,37.32,53.14,71.3,74.58a13.64,13.64,0,0,1,4.36,18.82,13.37,13.37,0,0,1-15.37,6.26,16,16,0,0,1-3.26-1.56c-38.31-24.18-61-47.94-81.15-84.71a200.51,200.51,0,0,1-15.63-154.46c12.85-42.58,59.61-66.33,104.29-52.85s70.52,59.13,57.66,101.73c-8.5,28.12,9.06,58.37,39.29,67.5s61.59-6.38,70.07-34.51C491.86,304,430.7,197.72,325.54,166c-74.67-22.52-155.56-1.62-205.75,53.51-16.68,18.21-29.47,41.6-37.72,68.94C75.88,308.94,68,341.83,71,388.64a13.4,13.4,0,0,1-12.7,14.53,13.62,13.62,0,0,1-14.52-12.7c-2.49-38.33,1.51-74.41,12.22-109.9C65.55,249,80.25,222.2,99.62,200.79c57.1-62.8,149-87,233.92-61.37C453.17,175.52,522.59,297.16,488.32,410.72Zm55.05-128.23a13.7,13.7,0,0,1-17.45-8.71c-13.67-40.27-35.78-75.34-65.8-104.19-63.8-61.41-160.27-90.53-247.21-74.31-41.31,7.62-79.2,24.86-112.86,50.86a12,12,0,0,1-11.92,2.42,14.34,14.34,0,0,1-6.91-4.66,13.7,13.7,0,0,1,2.4-19.36c37.13-29,79-47.87,124.53-56.22,95.4-17.68,201.16,13.94,271.12,81.52A285.13,285.13,0,0,1,552.08,265,13.74,13.74,0,0,1,543.37,282.49Z"/></svg>