<svg id="Layer_1" data-name="Layer 1" xmlns="http://www.w3.org/2000/svg" xmlns:xlink="http://www.w3.org/1999/xlink" viewBox="0 0 600 600"><defs><style>.cls-1{fill:url(#New_Gradient_Swatch_1);}.cls-2{fill:#fff;}</style><linearGradient id="New_Gradient_Swatch_1" x1="52.03" y1="443.53" x2="550.94" y2="155.48" gradientUnits="userSpaceOnUse"><stop offset="0" stop-color="#fe0944"/><stop offset="1" stop-color="#fe093c"/></linearGradient></defs><path class="cls-1" d="M589.49,299.51a290.92,290.92,0,0,1-2.1,35A285.56,285.56,0,0,1,559,428.62C511.66,522.84,414.12,587.5,301.48,587.5c-159,0-288-128.94-288-288,0-121.32,75-225.12,181.17-267.54A288,288,0,0,1,589.49,299.51Z"/><path class="cls-2" d="M565.57,276.54a285.13,285.13,0,0,0-72.81-115.2C422.8,93.76,317,62.14,221.64,79.82c-45.55,8.35-87.4,27.26-124.53,56.22a13.7,13.7,0,0,0-2.4,19.36,14.34,14.34,0,0,0,6.91,4.66,12,12,0,0,0,11.92-2.42c33.66-26,71.55-43.24,112.86-50.86,86.94-16.22,183.41,12.9,247.21,74.31,30,28.85,52.13,63.92,65.8,104.19a13.79,13.79,0,0,0,26.16-8.74ZM328.66,215.66c-82-24.76-168,18.72-191.57,96.79-12.77,42.34-15.21,84.62-6.82,122.44,8,37.13,15.93,55.57,31.9,85.35a12.86,12.86,0,0,0,8,6.71,15,15,0,0,0,10.92-1,14.09,14.09,0,0,0,5.62-18.67c-14-26.61-21.73-43-29.42-78.3-7.47-33.22-5.34-70.72,6.08-108.59,19.2-63.62,89.77-98.83,157.34-78.45S427.6,330.7,408.41,394.32a13.73,13.73,0,1,0,26.28,7.94C458.25,324.17,410.68,240.41,328.66,215.66ZM409.5,514.27a181.42,181.42,0,0,1-28.13-5.63c-26.3-7.92-46.29-20.55-61.15-38.8-25.57-31.24-34-71.92-22.76-109a13.73,13.73,0,1,0-26.28-7.94c-13.81,45.74-3.42,95.91,27.73,134.29,17.94,22.34,43.16,38.55,74.45,48a185.76,185.76,0,0,0,32.76,6.46,13.79,13.79,0,0,0,3.38-27.38ZM347,150.92c-84.91-25.61-176.82-1.43-233.92,61.37C93.74,233.7,79,260.52,69.53,292.07,58.82,327.56,54.82,363.64,57.31,402a13.62,13.62,0,0,0,14.52,12.7,13.4,13.4,0,0,0,12.7-14.53c-3.08-46.81,4.84-79.7,11-100.21,8.25-27.34,21-50.73,37.72-68.94,50.19-55.13,131.08-76,205.75-53.51,105.16,31.74,166.32,138,136.41,237.07-8.48,28.13-39.83,43.63-70.07,34.51s-47.79-39.38-39.29-67.5c12.86-42.6-13-88.25-57.66-101.73S217,290.1,204.13,332.68a200.51,200.51,0,0,0,15.63,154.46c20.18,36.77,42.84,60.53,81.15,84.71a16,16,0,0,0,3.26,1.56,13.37,13.37,0,0,0,15.37-6.26,13.64,13.64,0,0,0-4.36-18.82c-34-21.44-53.77-42.32-71.3-74.58-22.29-41.14-26.94-88.44-13.38-133.4,8.48-28.13,39.85-43.61,70.08-34.49s47.78,39.38,39.28,67.5c-12.84,42.58,13,88.24,57.66,101.73S489,464.82,501.81,422.22C536.08,308.66,466.66,187,347,150.92Z"/></svg>